<svg width="20" height="20" fill="none" xmlns="http://www.w3.org/2000/svg"><path d="M13.828 10a3.828 3.828 0 1 1-7.656 0 3.828 3.828 0 0 1 7.656 0Z" fill="#fff" fill-opacity=".5"/><path d="M18.953 3.227a3.559 3.559 0 0 0-.86-1.32 3.556 3.556 0 0 0-1.32-.86C16.368.89 15.761.703 14.641.652 13.43.597 13.066.585 10 .585c-3.067 0-3.43.012-4.64.067-1.12.051-1.729.238-2.133.395-.499.184-.95.478-1.32.86a3.56 3.56 0 0 0-.86 1.32C.89 3.632.703 4.24.652 5.359.597 6.57.585 6.934.585 10c0 3.067.012 3.43.067 4.641.05 1.12.238 1.728.395 2.132.184.5.478.95.86 1.32.37.382.82.676 1.32.86.404.157 1.012.345 2.132.395 1.211.056 1.574.067 4.64.067 3.068 0 3.43-.011 4.641-.067 1.12-.05 1.728-.238 2.133-.395a3.802 3.802 0 0 0 2.18-2.18c.157-.404.344-1.012.395-2.132.055-1.211.067-1.574.067-4.64 0-3.067-.012-3.43-.067-4.641-.05-1.12-.238-1.728-.395-2.133ZM10 15.897a5.897 5.897 0 1 1 0-11.794 5.897 5.897 0 0 1 0 11.794Zm6.13-10.65a1.378 1.378 0 1 1 0-2.756 1.378 1.378 0 0 1 0 2.757Z" fill="#fff" fill-opacity=".5"/></svg>