<svg width="20" height="20" viewBox="0 0 20 20" fill="none" xmlns="http://www.w3.org/2000/svg">
<path d="M13.8281 10C13.8281 12.1143 12.1143 13.8281 10 13.8281C7.88574 13.8281 6.17188 12.1143 6.17188 10C6.17188 7.88574 7.88574 6.17188 10 6.17188C12.1143 6.17188 13.8281 7.88574 13.8281 10Z" fill="white" fill-opacity="0.5"/>
<path d="M18.9526 3.22693C18.7686 2.72827 18.475 2.27692 18.0936 1.90643C17.7231 1.52496 17.272 1.23138 16.7731 1.04736C16.3684 0.890198 15.7605 0.703125 14.6408 0.652161C13.4296 0.596924 13.0664 0.585022 10 0.585022C6.93329 0.585022 6.57013 0.596619 5.35919 0.651855C4.2395 0.703125 3.63129 0.890198 3.22693 1.04736C2.72797 1.23138 2.27661 1.52496 1.90643 1.90643C1.52496 2.27692 1.23138 2.72797 1.04706 3.22693C0.889893 3.63159 0.70282 4.23981 0.651855 5.3595C0.596619 6.57043 0.584717 6.93359 0.584717 10.0003C0.584717 13.0667 0.596619 13.4299 0.651855 14.6411C0.70282 15.7608 0.889893 16.3687 1.04706 16.7734C1.23138 17.2723 1.52466 17.7234 1.90613 18.0939C2.27661 18.4753 2.72766 18.7689 3.22662 18.9529C3.63129 19.1104 4.2395 19.2975 5.35919 19.3484C6.57013 19.4037 6.93298 19.4153 9.99969 19.4153C13.0667 19.4153 13.4299 19.4037 14.6405 19.3484C15.7602 19.2975 16.3684 19.1104 16.7731 18.9529C17.7747 18.5666 18.5663 17.775 18.9526 16.7734C19.1098 16.3687 19.2969 15.7608 19.3481 14.6411C19.4034 13.4299 19.415 13.0667 19.415 10.0003C19.415 6.93359 19.4034 6.57043 19.3481 5.3595C19.2972 4.23981 19.1101 3.63159 18.9526 3.22693V3.22693ZM10 15.8972C6.74286 15.8972 4.10248 13.2571 4.10248 10C4.10248 6.74286 6.74286 4.10278 10 4.10278C13.2568 4.10278 15.8972 6.74286 15.8972 10C15.8972 13.2571 13.2568 15.8972 10 15.8972ZM16.1304 5.2478C15.3693 5.2478 14.7522 4.63074 14.7522 3.86963C14.7522 3.10852 15.3693 2.49146 16.1304 2.49146C16.8915 2.49146 17.5085 3.10852 17.5085 3.86963C17.5082 4.63074 16.8915 5.2478 16.1304 5.2478Z" fill="white" fill-opacity="0.5"/>
</svg>
